<?xml version="1.0" standalone="no"?>
<!DOCTYPE svg PUBLIC "-//W3C//DTD SVG 20010904//EN"
 "http://www.w3.org/TR/2001/REC-SVG-20010904/DTD/svg10.dtd">
<svg version="1.0" xmlns="http://www.w3.org/2000/svg"
 width="135.000000pt" height="135.000000pt" viewBox="0 0 135.000000 135.000000"
 preserveAspectRatio="xMidYMid meet">
<metadata>
Created by potrace 1.11, written by Peter Selinger 2001-2013
</metadata>
<g transform="translate(0.000000,135.000000) scale(0.100000,-0.100000)"
fill="#000000" stroke="none">
<path d="M995 1021 c82 -83 150 -149 152 -147 5 4 -16 144 -27 187 -6 20 -19
44 -29 53 -22 20 -100 41 -186 51 l-60 6 150 -150z"/>
<path d="M641 1144 c-203 -54 -365 -211 -428 -412 -22 -70 -24 -87 -14 -106 7
-13 102 -112 210 -220 l198 -198 55 11 c70 15 177 66 244 117 106 80 186 202
219 332 l16 62 -208 215 c-114 118 -215 215 -223 214 -8 0 -39 -7 -69 -15z
m93 -303 l20 -21 32 31 c28 27 36 30 49 19 22 -18 19 -40 -10 -70 l-25 -26 25
-24 c29 -27 32 -52 10 -70 -13 -11 -21 -8 -48 18 l-33 32 -22 -22 -22 -22 32
-33 32 -33 -22 -22 -22 -22 -33 32 -33 32 -22 -22 -22 -22 32 -33 32 -33 -21
-21 -20 -21 -35 31 -35 30 -23 -24 c-27 -29 -52 -32 -70 -10 -11 13 -8 21 18
48 l31 32 -31 34 -30 33 21 21 21 21 33 -32 33 -32 22 22 22 22 -32 33 -32 33
22 22 22 22 33 -32 33 -32 22 22 22 22 -32 33 c-31 32 -31 33 -13 52 19 22 37
18 69 -18z"/>
<path d="M181 480 c1 -64 27 -183 46 -208 11 -15 37 -33 58 -40 41 -13 184
-36 191 -30 2 2 -64 71 -146 153 -125 125 -150 146 -149 125z"/>
</g>
</svg>
